<svg xmlns="http://www.w3.org/2000/svg" xmlns:xlink="http://www.w3.org/1999/xlink" width="344" zoomAndPan="magnify" viewBox="0 0 258 135.000003" height="180" preserveAspectRatio="xMidYMid meet" version="1.0"><defs><g/><clipPath id="2d4bbdde66"><path d="M 28.289062 90.292969 L 120.5 90.292969 L 120.5 100.546875 L 28.289062 100.546875 Z M 28.289062 90.292969 " clip-rule="nonzero"/></clipPath><clipPath id="a8189999b9"><path d="M 132.5 32.015625 L 224.710938 32.015625 L 224.710938 42.269531 L 132.5 42.269531 Z M 132.5 32.015625 " clip-rule="nonzero"/></clipPath></defs><g clip-path="url(#2d4bbdde66)"><path fill="#000000" d="M 28.289062 90.292969 L 120.496094 90.292969 L 120.496094 100.546875 L 28.289062 100.546875 Z M 28.289062 90.292969 " fill-opacity="1" fill-rule="nonzero"/></g><g clip-path="url(#a8189999b9)"><path fill="#000000" d="M 132.5 32.015625 L 224.707031 32.015625 L 224.707031 42.269531 L 132.5 42.269531 Z M 132.5 32.015625 " fill-opacity="1" fill-rule="nonzero"/></g><g fill="#000000" fill-opacity="1"><g transform="translate(24.676658, 72.064471)"><g><path d="M 4.9375 0 L 21.226562 0 C 34.222656 0 42.921875 -8.289062 42.921875 -20.578125 C 42.921875 -32.808594 34.222656 -41.160156 21.226562 -41.160156 L 4.9375 -41.160156 Z M 14.289062 -8.585938 L 14.289062 -32.574219 L 20.933594 -32.574219 C 28.339844 -32.574219 33.339844 -27.8125 33.339844 -20.578125 C 33.339844 -13.347656 28.339844 -8.585938 21.050781 -8.585938 Z M 14.289062 -8.585938 "/></g></g></g><g fill="#000000" fill-opacity="1"><g transform="translate(82.236164, 72.064471)"><g><path d="M 16.347656 0 L 25.519531 0 L 41.335938 -41.160156 L 31.339844 -41.160156 L 20.992188 -13.464844 L 16.050781 -26.519531 L 10.582031 -41.160156 L 0.527344 -41.160156 Z M 16.347656 0 "/></g></g></g><g fill="#000000" fill-opacity="1"><g transform="translate(132.407686, 100.359234)"><g><path d="M 4.9375 0 L 14.289062 0 L 14.289062 -14.171875 L 29.222656 -14.171875 L 29.222656 -22.402344 L 14.289062 -22.402344 L 14.289062 -32.691406 L 30.753906 -32.691406 L 30.753906 -41.160156 L 4.9375 -41.160156 Z M 4.9375 0 "/></g></g></g><g fill="#000000" fill-opacity="1"><g transform="translate(177.915022, 100.359234)"><g><path d="M 4.9375 0 L 14.230469 0 L 14.230469 -24.8125 L 24.226562 -10.171875 L 30.691406 -10.171875 L 40.6875 -24.753906 L 40.6875 0 L 49.980469 0 L 49.980469 -41.160156 L 42.101562 -41.160156 L 27.519531 -19.816406 L 12.878906 -41.160156 L 4.9375 -41.160156 Z M 4.9375 0 "/></g></g></g><g fill="#000000" fill-opacity="1"><g transform="translate(76.921796, 121.653416)"><g><path d="M 1.5 0 L 6.449219 0 C 10.398438 0 13.042969 -2.519531 13.042969 -6.253906 C 13.042969 -9.96875 10.398438 -12.507812 6.449219 -12.507812 L 1.5 -12.507812 Z M 4.34375 -2.609375 L 4.34375 -9.898438 L 6.359375 -9.898438 C 8.613281 -9.898438 10.132812 -8.453125 10.132812 -6.253906 C 10.132812 -4.054688 8.613281 -2.609375 6.398438 -2.609375 Z M 4.34375 -2.609375 "/></g></g></g><g fill="#000000" fill-opacity="1"><g transform="translate(90.715574, 121.653416)"><g><path d="M 5.789062 0.25 C 8.09375 0.25 9.917969 -0.929688 10.738281 -2.914062 L 7.988281 -2.914062 C 7.539062 -2.285156 6.734375 -1.929688 5.84375 -1.929688 C 4.609375 -1.929688 3.644531 -2.625 3.394531 -3.914062 L 10.917969 -3.914062 C 11.078125 -7.34375 9.042969 -9.628906 5.824219 -9.628906 C 2.789062 -9.628906 0.695312 -7.613281 0.695312 -4.699219 C 0.695312 -1.769531 2.769531 0.25 5.789062 0.25 Z M 3.414062 -5.628906 C 3.714844 -6.773438 4.644531 -7.46875 5.84375 -7.46875 C 7.09375 -7.46875 7.988281 -6.773438 8.289062 -5.628906 Z M 3.414062 -5.628906 "/></g></g></g><g fill="#000000" fill-opacity="1"><g transform="translate(102.311646, 121.653416)"><g><path d="M 4.054688 0 L 6.773438 0 L 10.683594 -9.378906 L 7.738281 -9.378906 L 6.664062 -6.433594 L 5.433594 -3.25 L 4.179688 -6.433594 L 3.125 -9.378906 L 0.160156 -9.378906 Z M 4.054688 0 "/></g></g></g><g fill="#000000" fill-opacity="1"><g transform="translate(113.157279, 121.653416)"><g><path d="M 1.5 0 L 4.34375 0 L 4.34375 -4.304688 L 8.878906 -4.304688 L 8.878906 -6.808594 L 4.34375 -6.808594 L 4.34375 -9.933594 L 9.34375 -9.933594 L 9.34375 -12.507812 L 1.5 -12.507812 Z M 1.5 0 "/></g></g></g><g fill="#000000" fill-opacity="1"><g transform="translate(123.288202, 121.653416)"><g><path d="M 5.96875 0.25 C 9.078125 0.25 11.222656 -1.769531 11.222656 -4.699219 C 11.222656 -7.613281 9.078125 -9.628906 5.96875 -9.628906 C 2.839844 -9.628906 0.695312 -7.613281 0.695312 -4.699219 C 0.695312 -1.769531 2.839844 0.25 5.96875 0.25 Z M 3.378906 -4.699219 C 3.378906 -6.234375 4.449219 -7.308594 5.96875 -7.308594 C 7.488281 -7.308594 8.539062 -6.234375 8.539062 -4.699219 C 8.539062 -3.164062 7.488281 -2.089844 5.96875 -2.089844 C 4.449219 -2.089844 3.378906 -3.164062 3.378906 -4.699219 Z M 3.378906 -4.699219 "/></g></g></g><g fill="#000000" fill-opacity="1"><g transform="translate(135.205885, 121.653416)"><g><path d="M 1.359375 0 L 4.074219 0 L 4.074219 -4.144531 C 4.074219 -6.164062 5.019531 -6.914062 6.574219 -6.914062 L 7.613281 -6.914062 L 7.613281 -9.378906 L 6.59375 -9.378906 C 5.21875 -9.378906 4.34375 -9.003906 3.734375 -8.128906 L 3.378906 -9.378906 L 1.359375 -9.378906 Z M 1.359375 0 "/></g></g></g><g fill="#000000" fill-opacity="1"><g transform="translate(143.424975, 121.653416)"><g><path d="M 5.09375 0.25 C 6.324219 0.25 7.433594 -0.179688 8.183594 -1.054688 L 8.46875 0 L 10.488281 0 L 10.488281 -9.378906 L 7.773438 -9.378906 L 7.773438 -4.484375 C 7.773438 -3 6.96875 -2.089844 5.734375 -2.089844 C 4.59375 -2.089844 3.894531 -2.894531 3.894531 -4.269531 L 3.894531 -9.378906 L 1.179688 -9.378906 L 1.179688 -4.003906 C 1.179688 -1.394531 2.664062 0.25 5.09375 0.25 Z M 5.09375 0.25 "/></g></g></g><g fill="#000000" fill-opacity="1"><g transform="translate(155.271193, 121.653416)"><g><path d="M 1.359375 0 L 4.074219 0 L 4.074219 -5.074219 C 4.074219 -6.433594 4.824219 -7.308594 5.984375 -7.308594 C 7.109375 -7.308594 7.808594 -6.46875 7.808594 -5.144531 L 7.808594 0 L 10.488281 0 L 10.488281 -5.074219 C 10.488281 -6.433594 11.238281 -7.308594 12.398438 -7.308594 C 13.527344 -7.308594 14.222656 -6.46875 14.222656 -5.144531 L 14.222656 0 L 16.9375 0 L 16.9375 -5.46875 C 16.9375 -8.039062 15.402344 -9.628906 13.007812 -9.628906 C 11.578125 -9.628906 10.398438 -9.078125 9.628906 -8.09375 C 8.96875 -9.09375 7.878906 -9.628906 6.539062 -9.628906 C 5.34375 -9.628906 4.324219 -9.21875 3.644531 -8.414062 L 3.378906 -9.378906 L 1.359375 -9.378906 Z M 1.359375 0 "/></g></g></g></svg>